#!OML:ASF H:\GeneralSubjects\Female5\Project 1\Capture day 1\Session 1\Female5.ASF
:FULLY-SPECIFIED
:DEGREES
351
root 1.23966 15.8209 5.25368 189.253 -28.3907 -174.406
lowerback 10.445 1.41971 -0.528125
upperback -9.73197 1.54624 1.01719
thorax -16.9664 0.672256 1.13002
lowerneck -23.4645 -1.11922 -1.65633
upperneck 33.0237 -3.75986 3.86276
head 15.7469 -1.67433 1.04853
rclavicle -6.9674e-014 -1.98785e-014
rhumerus -44.9441 4.00674 -68.3077
rradius 39.5417
rwrist -42.1806
rhand -14.5793 -28.3856
rfingers 7.12502
rthumb 11.5705 -58.0462
lclavicle -6.9674e-014 -1.98785e-014
lhumerus -44.5291 14.3299 65.7719
lradius 35.3504
lwrist 4.18009
lhand -23.2611 36.5147
lfingers 7.12502
lthumb 3.19092 426.471
rfemur -16.8493 20.0626 20.4561
rtibia -2.07512
rfoot -40.8096 -35.6985
rtoes 15.3334
lfemur 26.356 -59.2496 -39.4011
ltibia -3.19195
lfoot -101.17 16.2823
ltoes -39.3775
352
root 1.33367 15.813 5.0586 188.789 -26.7921 -173.592
lowerback 10.3753 1.50915 0.393209
upperback -9.78616 1.80953 0.923346
thorax -16.9548 0.666647 0.443671
lowerneck -23.0737 -0.68056 -1.06049
upperneck 33.1553 -3.59935 4.26761
head 15.7171 -1.50339 1.1465
rclavicle -6.17226e-014 -3.57812e-015
rhumerus -44.4294 4.45478 -69.88
rradius 40.4907
rwrist -40.6964
rhand -13.3456 -27.5189
rfingers 7.12502
rthumb 12.7601 -57.109
lclavicle -6.17226e-014 -3.57812e-015
lhumerus -43.4139 13.0862 65.3367
lradius 36.6498
lwrist 4.80003
lhand -23.9449 37.8114
lfingers 7.12502
lthumb 2.53057 427.776
rfemur -16.7617 17.5106 23.1397
rtibia -1.3284
rfoot -36.374 -34.8356
rtoes 13.3385
lfemur 25.9059 -56.3803 -37.0906
ltibia -3.66906
lfoot -100.309 16.4113
ltoes -40.8689
353
root 1.43398 15.8071 4.86361 188.508 -25.1432 -172.857
lowerback 10.1923 1.61407 1.19806
upperback -9.86215 2.06149 0.806546
thorax -16.8928 0.666534 -0.196151
lowerneck -22.7047 -0.494382 -0.666179
upperneck 33.2689 -3.82645 4.88313
head 15.7124 -1.49461 1.28952
rclavicle 6.6742e-014 2.18663e-014
rhumerus -44.0618 5.07798 -71.4821
rradius 41.4248
rwrist -39.9913
rhand -12.7873 -26.875
rfingers 7.12502
rthumb 13.2982 -56.4307
lclavicle 6.6742e-014 2.18663e-014
lhumerus -42.3422 11.9934 64.6851
lradius 37.84
lwrist 5.63926
lhand -24.5386 38.9277
lfingers 7.12502
lthumb 1.95718 428.898
rfemur -17.1424 14.9221 25.7155
rtibia 0.0725393
rfoot -31.1702 -33.0758
rtoes 9.75383
lfemur 23.6558 -51.7367 -32.8738
ltibia -4.40968
lfoot -97.2477 17.8163
ltoes -43.2345
354
root 1.53288 15.8016 4.66459 188.355 -23.4475 -172.498
lowerback 9.96624 1.72013 1.74306
upperback -9.9061 2.25051 0.561256
thorax -16.7617 0.662004 -0.818492
lowerneck -22.3306 -0.227195 -0.29503
upperneck 33.3727 -3.90519 5.46606
head 15.6968 -1.43324 1.45214
rclavicle 3.95581e-014 2.06736e-014
rhumerus -43.8932 5.94917 -73.144
rradius 42.3917
rwrist -39.8803
rhand -12.7725 -26.5066
rfingers 7.12502
rthumb 13.3125 -56.0614
lclavicle 3.95581e-014 2.06736e-014
lhumerus -41.3278 10.9607 63.8299
lradius 38.9998
lwrist 6.75924
lhand -24.8928 39.7492
lfingers 7.12502
lthumb 1.61514 429.723
rfemur -17.3246 13.0052 27.7796
rtibia 1.26053
rfoot -27.2869 -29.7326
rtoes 10.6373
lfemur 21.5813 -46.5208 -29.1427
ltibia -4.86279
lfoot -93.4671 18.6602
ltoes -44.7556
355
root 1.63828 15.7908 4.46662 188.261 -21.8331 -172.209
lowerback 9.74579 1.83966 2.07521
upperback -9.98487 2.42067 0.359954
thorax -16.686 0.676095 -1.26502
lowerneck -21.9415 0.136403 0.121387
upperneck 33.5041 -3.78565 5.87842
head 15.6758 -1.30763 1.57362
rclavicle 1.75427e-014 1.59028e-015
rhumerus -43.8836 6.78436 -74.528
rradius 43.1972
rwrist -39.653
rhand -12.8212 -26.4067
rfingers 7.12502
rthumb 13.2656 -55.9646
lclavicle 1.75427e-014 1.59028e-015
lhumerus -40.4377 10.1805 63.0007
lradius 40.0833
lwrist 7.65642
lhand -25.4232 40.2577
lfingers 7.12502
lthumb 1.10282 430.235
rfemur -17.2863 11.4315 29.6801
rtibia 2.11887
rfoot -24.4332 -27.3139
rtoes 9.22666
lfemur 18.7204 -39.5104 -24.4795
ltibia -4.93513
lfoot -87.4521 19.2283
ltoes -45.7933
356
root 1.74593 15.7776 4.26914 188.01 -20.3574 -171.902
lowerback 9.74095 1.95651 2.24927
upperback -10.0675 2.58365 0.265567
thorax -16.7679 0.712729 -1.50681
lowerneck -21.485 0.287628 0.482561
upperneck 33.663 -3.96118 6.23586
head 15.6662 -1.32915 1.62131
rclavicle -5.96354e-015 -1.66979e-014
rhumerus -44.0802 7.61283 -75.6178
rradius 43.8242
rwrist -39.308
rhand -12.7556 -26.1778
rfingers 7.12502
rthumb 13.3288 -55.7315
lclavicle -5.96354e-015 -1.66979e-014
lhumerus -39.49 9.56513 62.4193
lradius 40.6682
lwrist 8.23357
lhand -26.4008 39.876
lfingers 7.12502
lthumb 0.158627 429.856
rfemur -16.8468 10.2136 31.478
rtibia 2.67236
rfoot -22.5694 -25.1491
rtoes 5.60049
lfemur 16.01 -31.3548 -19.7719
ltibia -4.06568
lfoot -79.9385 20.0089
ltoes -46.8994
357
root 1.85042 15.7638 4.07256 187.547 -19.159 -171.576
lowerback 9.8526 1.96317 2.66215
upperback -10.0766 2.64708 0.133113
thorax -16.8252 0.677021 -1.90676
lowerneck -20.8546 0.500048 0.586807
upperneck 33.7252 -4.02653 6.8481
head 15.5774 -1.31063 1.84151
rclavicle 3.08116e-015 1.03368e-014
rhumerus -44.3702 8.50811 -76.7054
rradius 44.2987
rwrist -38.9891
rhand -12.4187 -25.8025
rfingers 7.12502
rthumb 13.6535 -55.3347
lclavicle 3.08116e-015 1.03368e-014
lhumerus -38.3927 8.94822 61.8936
lradius 41.0193
lwrist 8.91906
lhand -27.3896 39.3286
lfingers 7.12502
lthumb -0.796349 429.307
rfemur -15.9191 9.42229 33.1039
rtibia 2.82055
rfoot -21.6905 -23.016
rtoes 6.01988
lfemur 13.8827 -23.6611 -15.692
ltibia -1.92261
lfoot -72.8252 20.1636
ltoes -47.7061
358
root 1.95418 15.746 3.87844 187.061 -18.2837 -171.168
lowerback 9.88352 1.85812 3.44643
upperback -10.0771 2.61156 -0.0593392
thorax -16.8064 0.547426 -2.55642
lowerneck -20.1388 0.839103 0.600003
upperneck 33.7707 -3.88838 7.53947
head 15.4532 -1.2127 2.14838
rclavicle -1.30204e-014 -2.14687e-014
rhumerus -44.7188 9.29877 -77.7502
rradius 44.6063
rwrist -38.6573
rhand -12.1252 -25.6306
rfingers 7.12502
rthumb 13.9363 -55.1436
lclavicle -1.30204e-014 -2.14687e-014
lhumerus -37.2731 8.03361 61.4478
lradius 41.5559
lwrist 10.4291
lhand -28.0473 39.3851
lfingers 7.12502
lthumb -1.43163 429.36
rfemur -14.7471 9.14106 34.6339
rtibia 2.61649
rfoot -21.128 -22.0184
rtoes 5.8856
lfemur 11.7685 -16.7055 -11.8764
ltibia 1.56428
lfoot -66.2919 20.2432
ltoes -48.4531
359
root 2.05308 15.7235 3.68801 186.556 -17.5698 -170.725
lowerback 9.94877 1.75633 4.22149
upperback -10.0642 2.59133 -0.199142
thorax -16.8003 0.431395 -3.14683
lowerneck -19.5251 0.969926 0.786149
upperneck 33.8158 -4.00332 7.91236
head 15.3534 -1.23989 2.24029
rclavicle -2.94201e-014 -4.45278e-014
rhumerus -45.0771 9.81493 -78.4748
rradius 44.6931
rwrist -38.1869
rhand -12.0096 -25.4338
rfingers 7.12502
rthumb 14.0478 -54.9391
lclavicle -2.94201e-014 -4.45278e-014
lhumerus -36.0537 6.66712 61.3137
lradius 42.221
lwrist 13.1206
lhand -27.823 40.5636
lfingers 7.12502
lthumb -1.21497 430.54
rfemur -13.4731 8.6693 36.123
rtibia 2.31241
rfoot -20.5389 -20.9987
rtoes 4.0114
lfemur 9.72931 -10.9919 -8.59186
ltibia 6.06995
lfoot -60.3995 21.3693
ltoes -49.3794
360
root 2.14737 15.7009 3.50663 186.053 -16.9619 -170.201
lowerback 10.0003 1.67614 5.0258
upperback -10.0134 2.61691 -0.293571
thorax -16.7379 0.341889 -3.71261
lowerneck -19.1442 1.19647 1.03843
upperneck 33.9661 -3.94033 8.1407
head 15.3418 -1.18918 2.29888
rclavicle -1.55052e-014 -2.22639e-014
rhumerus -45.3745 9.99044 -78.8872
rradius 44.5817
rwrist -37.5179
rhand -12.0712 -25.233
rfingers 7.12502
rthumb 13.9884 -54.7423
lclavicle -1.55052e-014 -2.22639e-014
lhumerus -34.7124 4.17985 62.0541
lradius 41.8722
lwrist 13.6525
lhand -30.1532 38.7895
lfingers 7.12502
lthumb -3.46541 428.741
rfemur -12.3692 7.38245 37.6578
rtibia 2.17458
rfoot -19.7736 -19.2169
rtoes 4.35327
lfemur 7.58518 -6.60305 -5.71675
ltibia 11.2415
lfoot -54.7566 23.1671
ltoes -50.2024
361
root 2.23771 15.685 3.33585 185.61 -16.5124 -169.741
lowerback 10.0817 1.57196 5.83163
upperback -9.97442 2.61189 -0.391372
thorax -16.7164 0.236207 -4.27825
lowerneck -18.8233 1.45811 1.33157
upperneck 34.1602 -3.77489 8.21871
head 15.3531 -1.10415 2.30789
rclavicle 1.63003e-014 -2.8625e-014
rhumerus -45.7108 9.92513 -79.0679
rradius 44.3192
rwrist -36.8174
rhand -12.5497 -25.1791
rfingers 7.12502
rthumb 13.5272 -54.7197
lclavicle 1.63003e-014 -2.8625e-014
lhumerus -33.1878 3.69989 62.2963
lradius 41.97
lwrist 14.8024
lhand -29.9857 39.508
lfingers 7.12502
lthumb -3.30362 429.462
rfemur -11.5217 5.72873 38.9733
rtibia 2.24482
rfoot -18.9085 -17.3156
rtoes 4.33072
lfemur 5.03829 -3.57096 -3.38344
ltibia 17.0012
lfoot -49.1063 25.214
ltoes -51.0396
